<?xml version="1.0" standalone="no"?>
<!DOCTYPE svg PUBLIC "-//W3C//DTD SVG 20010904//EN"
 "http://www.w3.org/TR/2001/REC-SVG-20010904/DTD/svg10.dtd">
<svg version="1.0" xmlns="http://www.w3.org/2000/svg"
 width="512.000000pt" height="512.000000pt" viewBox="0 0 512.000000 512.000000"
 preserveAspectRatio="xMidYMid meet">
<metadata>
Created by potrace 1.11, written by Peter Selinger 2001-2013
</metadata>
<g transform="translate(0.000000,512.000000) scale(0.100000,-0.100000)"
fill="#000000" stroke="none">
<path d="M0 2560 l0 -2560 2560 0 2560 0 0 2560 0 2560 -2560 0 -2560 0 0
-2560z m2019 308 c295 -856 538 -1554 540 -1552 3 3 247 702 542 1555 295 853
539 1552 542 1555 2 2 125 3 273 2 l270 -3 -701 -1890 -701 -1890 -223 0 -224
0 -692 1870 c-381 1029 -695 1880 -699 1893 l-7 22 271 -2 272 -3 537 -1557z"/>
</g>
</svg>
